<svg width="1108" height="47" viewBox="0 0 1108 47" fill="none" xmlns="http://www.w3.org/2000/svg">
<g filter="url(#filter0_d_874_7988)">
<path d="M660.47 20.3919L660.815 20.0301L660.67 19.8919H660.47V20.3919ZM670.244 29.7162L669.899 30.078L670.044 30.2162H670.244V29.7162ZM687.585 29.7162V30.2162H687.788L687.933 30.0753L687.585 29.7162ZM705.872 12L706.245 11.667L705.898 11.2785L705.524 11.6409L705.872 12ZM712.809 19.7703L712.436 20.1032L712.585 20.2703H712.809V19.7703ZM848.07 19.7703L848.414 19.4072L848.269 19.2703H848.07V19.7703ZM864.15 35L863.806 35.363L864.176 35.7132L864.519 35.3371L864.15 35ZM869.825 28.7838V28.2838H869.605L869.456 28.4467L869.825 28.7838ZM913.021 28.7838V29.2838H913.231L913.378 29.1332L913.021 28.7838ZM929.416 12V11.5H929.206L929.058 11.6506L929.416 12ZM962.837 12L963.161 11.619L963.021 11.5H962.837V12ZM971.981 19.7703L971.657 20.1513L971.797 20.2703H971.981V19.7703ZM1057.43 19.7703V20.2703H1057.63L1057.78 20.1263L1057.43 19.7703ZM1065.31 12L1065.68 11.661L1065.33 11.281L1064.96 11.6439L1065.31 12ZM1074.77 22.2568L1074.4 22.5957L1074.55 22.7568H1074.77V22.2568ZM1081.7 22.2568V22.7568H1082.2V22.2568H1081.7ZM1081.7 16.973V16.473H1081.2V16.973H1081.7ZM1091.33 16.973C1091.33 18.4457 1092.53 19.6396 1094 19.6396C1095.47 19.6396 1096.67 18.4457 1096.67 16.973C1096.67 15.5002 1095.47 14.3063 1094 14.3063C1092.53 14.3063 1091.33 15.5002 1091.33 16.973ZM-13 20.8919H660.47V19.8919H-13V20.8919ZM660.125 20.7537L669.899 30.078L670.589 29.3544L660.815 20.0301L660.125 20.7537ZM670.244 30.2162H687.585V29.2162H670.244V30.2162ZM687.933 30.0753L706.22 12.3591L705.524 11.6409L687.237 29.3571L687.933 30.0753ZM705.499 12.333L712.436 20.1032L713.182 19.4373L706.245 11.667L705.499 12.333ZM712.809 20.2703H848.07V19.2703H712.809V20.2703ZM847.726 20.1333L863.806 35.363L864.494 34.637L848.414 19.4072L847.726 20.1333ZM864.519 35.3371L870.195 29.1209L869.456 28.4467L863.781 34.6629L864.519 35.3371ZM869.825 29.2838H913.021V28.2838H869.825V29.2838ZM913.378 29.1332L929.774 12.3494L929.058 11.6506L912.663 28.4344L913.378 29.1332ZM929.416 12.5H962.837V11.5H929.416V12.5ZM962.514 12.381L971.657 20.1513L972.305 19.3893L963.161 11.619L962.514 12.381ZM971.981 20.2703H1057.43V19.2703H971.981V20.2703ZM1057.78 20.1263L1065.66 12.3561L1064.96 11.6439L1057.07 19.4142L1057.78 20.1263ZM1064.94 12.339L1074.4 22.5957L1075.13 21.9178L1065.68 11.661L1064.94 12.339ZM1074.77 22.7568H1081.7V21.7568H1074.77V22.7568ZM1082.2 22.2568V16.973H1081.2V22.2568H1082.2ZM1081.7 17.473H1094V16.473H1081.7V17.473Z" fill="#2CFE75"/>
</g>
<defs>
<filter id="filter0_d_874_7988" x="-24" y="0.278503" width="1131.67" height="46.4347" filterUnits="userSpaceOnUse" color-interpolation-filters="sRGB">
<feFlood flood-opacity="0" result="BackgroundImageFix"/>
<feColorMatrix in="SourceAlpha" type="matrix" values="0 0 0 0 0 0 0 0 0 0 0 0 0 0 0 0 0 0 127 0" result="hardAlpha"/>
<feOffset/>
<feGaussianBlur stdDeviation="5.5"/>
<feComposite in2="hardAlpha" operator="out"/>
<feColorMatrix type="matrix" values="0 0 0 0 0.40276 0 0 0 0 0.870833 0 0 0 0 0.563951 0 0 0 1 0"/>
<feBlend mode="normal" in2="BackgroundImageFix" result="effect1_dropShadow_874_7988"/>
<feBlend mode="normal" in="SourceGraphic" in2="effect1_dropShadow_874_7988" result="shape"/>
</filter>
</defs>
</svg>
