<svg width="352" height="40" viewBox="0 0 352 40" fill="none" xmlns="http://www.w3.org/2000/svg">
<path d="M189.536 19.9983C189.061 19.7602 188.705 19.5221 188.468 19.284C187.993 19.284 187.637 19.165 187.4 18.9269C186.925 18.6888 186.569 18.4507 186.332 18.2126C185.857 17.9745 185.501 17.7364 185.264 17.4984C185.026 17.2603 184.67 17.0222 184.196 16.7841C183.958 16.7841 183.721 16.665 183.484 16.4269C183.009 16.1889 182.653 15.8317 182.416 15.3555C182.178 15.1175 181.941 14.8794 181.704 14.6413C181.466 14.4032 181.11 14.1651 180.636 13.927L179.924 13.2128C179.686 12.9747 179.449 12.7366 179.212 12.4985L178.5 11.4271L177.788 10.7129L177.076 9.99855L176.72 8.9272L176.008 8.21289L176.364 8.9272L176.72 9.99855L177.432 10.7129L178.144 11.7842C178.144 12.0223 178.262 12.2604 178.5 12.4985C178.737 12.9747 178.974 13.3318 179.212 13.5699C179.449 13.808 179.686 14.0461 179.924 14.2842C180.161 14.5223 180.398 14.8794 180.636 15.3555C181.11 15.5936 181.466 15.8318 181.704 16.0698C181.941 16.3079 182.178 16.546 182.416 16.7841C182.89 17.0222 183.246 17.2603 183.484 17.4984C183.721 17.7364 184.077 17.9745 184.552 18.2126C184.789 18.4507 185.145 18.6888 185.62 18.9269C185.857 19.165 186.213 19.4031 186.688 19.6412C186.925 19.8793 187.281 19.9983 187.756 19.9983C187.756 20.2364 187.874 20.3554 188.112 20.3554C187.874 20.3554 187.756 20.3554 187.756 20.3554C187.281 20.5935 186.925 20.8316 186.688 21.0697C186.213 21.3078 185.857 21.5458 185.62 21.7839C185.145 22.022 184.789 22.2601 184.552 22.4982C184.077 22.7363 183.721 22.9744 183.484 23.2125C183.246 23.4506 183.009 23.6887 182.772 23.9267C182.297 24.1648 181.941 24.4029 181.704 24.641C181.466 24.8791 181.229 25.1172 180.992 25.3553C180.754 25.5933 180.517 25.9505 180.28 26.4267C180.042 26.6648 179.805 26.9028 179.568 27.1409C179.33 27.379 179.093 27.6171 178.856 27.8552C178.618 28.3313 178.381 28.6885 178.144 28.9266C177.906 29.1647 177.669 29.4027 177.432 29.6408C177.432 30.117 177.313 30.4742 177.076 30.7122C176.838 30.9503 176.601 31.1884 176.364 31.4265L176.008 32.4979C176.482 32.0217 176.957 31.4265 177.432 30.7122C177.669 30.4742 177.906 30.2361 178.144 29.998C178.381 29.7599 178.618 29.4028 178.856 28.9266C179.33 28.4504 179.805 27.9742 180.28 27.4981C180.517 27.26 180.754 27.0219 180.992 26.7838C181.229 26.5457 181.466 26.3076 181.704 26.0695C181.941 25.5933 182.297 25.2362 182.772 24.9982C183.009 24.7601 183.246 24.5219 183.484 24.2838C183.721 24.0458 184.077 23.8077 184.552 23.5696C184.789 23.3315 185.026 23.0934 185.264 22.8553C185.738 22.8553 186.094 22.7363 186.332 22.4982C186.569 22.2601 186.925 22.022 187.4 21.7839C187.637 21.5458 187.993 21.3078 188.468 21.0697C188.942 21.0697 189.298 20.9506 189.536 20.7125C189.536 20.7125 189.654 20.7125 189.892 20.7125C189.892 20.3554 189.892 19.9983 189.536 19.9983Z" fill="#3BE174"/>
<path fill-rule="evenodd" clip-rule="evenodd" d="M176 32.8567C175.763 32.6186 175.645 32.4995 175.645 32.4995L176 31.4281C176.238 31.19 176.357 30.952 176.357 30.7139H176.713C176.713 30.4758 176.831 30.2377 177.068 29.9996C177.068 29.7615 177.068 29.6425 177.068 29.6425C177.306 29.4044 177.424 29.1663 177.424 28.9282H177.78C178.018 28.6901 178.136 28.452 178.136 28.214L178.492 27.8568C178.73 27.6187 178.967 27.3806 179.204 27.1425C179.442 26.6664 179.679 26.3092 179.916 26.0711C180.154 25.8331 180.391 25.595 180.628 25.3569C180.866 25.1188 181.103 24.8807 181.34 24.6426C181.578 24.1665 181.934 23.8093 182.408 23.5712C182.646 23.3331 182.883 23.0951 183.12 22.857C183.358 22.6189 183.714 22.3808 184.188 22.1427C184.426 21.9046 184.663 21.7856 184.9 21.7856L185.256 21.4285C185.494 21.4285 185.731 21.3094 185.968 21.0713C185.968 21.0713 186.087 20.9522 186.324 20.7142C186.562 20.7142 186.799 20.5951 187.036 20.3571C186.799 20.119 186.562 19.8809 186.324 19.6428C186.087 19.6428 185.968 19.6428 185.968 19.6428C185.731 19.4047 185.494 19.2856 185.256 19.2856C185.019 19.0476 184.9 18.9285 184.9 18.9285C184.663 18.6904 184.426 18.5714 184.188 18.5714C183.951 18.3333 183.832 18.2142 183.832 18.2142C183.595 17.9762 183.358 17.8571 183.12 17.8571C183.12 17.6191 183.002 17.5 182.764 17.5C182.527 17.2619 182.29 17.0238 182.052 16.7857C182.052 16.7857 181.934 16.7857 181.696 16.7857C181.696 16.5476 181.578 16.3096 181.34 16.0715C181.103 16.0715 180.984 16.0715 180.984 16.0715C180.747 15.8334 180.51 15.5953 180.272 15.3572C180.272 15.3572 180.272 15.2382 180.272 15.0001C180.035 14.762 179.798 14.6429 179.56 14.6429C179.56 14.4048 179.56 14.2858 179.56 14.2858C179.323 14.0477 179.086 13.8096 178.848 13.5715C178.848 13.5715 178.848 13.4525 178.848 13.2144C178.611 13.2144 178.374 13.0953 178.136 12.8573V12.5002C177.899 12.2621 177.662 12.0239 177.424 11.7858L177.068 11.0716L176.357 10.0002L176 9.28593L175.645 8.21452C175.645 7.97643 175.763 7.85742 176 7.85742C176.238 7.85742 176.357 7.85742 176.357 7.85742L177.068 8.92883L177.424 9.64308L178.136 10.7145L178.848 11.4287L179.56 12.143C179.798 12.3811 179.916 12.6192 179.916 12.8573C180.154 12.8573 180.272 12.9763 180.272 13.2144L180.984 13.9287C181.222 13.9287 181.459 14.0477 181.696 14.2858C181.696 14.2858 181.815 14.4048 182.052 14.6429C182.052 14.881 182.171 15.0001 182.408 15.0001C182.646 15.2382 182.764 15.3572 182.764 15.3572C183.002 15.5953 183.239 15.7143 183.476 15.7143C183.476 15.9524 183.595 16.0715 183.832 16.0715C183.832 16.3096 183.951 16.4286 184.188 16.4286C184.426 16.6667 184.544 16.7857 184.544 16.7857C184.782 16.7857 185.019 16.9047 185.256 17.1428C185.256 17.1428 185.375 17.2619 185.612 17.5C185.85 17.5 186.087 17.6191 186.324 17.8571C186.324 17.8571 186.443 17.8571 186.68 17.8571C186.918 18.0952 187.036 18.3333 187.036 18.5714C187.274 18.5714 187.511 18.5714 187.748 18.5714C187.748 18.8095 187.867 18.9285 188.104 18.9285C188.342 18.9285 188.579 19.0476 188.816 19.2856C188.816 19.2856 188.935 19.2856 189.172 19.2856C189.41 19.5237 189.647 19.6428 189.884 19.6428C190.122 19.8809 190.24 19.9999 190.24 19.9999C190.24 20.238 190.24 20.4761 190.24 20.7142C190.003 20.7142 189.884 20.8332 189.884 21.0713C189.647 21.0713 189.528 21.0713 189.528 21.0713C189.291 21.3094 189.054 21.4285 188.816 21.4285C188.579 21.4285 188.46 21.5475 188.46 21.7856C188.223 21.7856 187.986 21.9046 187.748 22.1427C187.511 22.1427 187.392 22.1427 187.392 22.1427C187.155 22.3808 186.918 22.4998 186.68 22.4998C186.443 22.7379 186.324 22.857 186.324 22.857C186.087 22.857 185.85 22.976 185.612 23.2141C185.375 23.4522 185.019 23.6903 184.544 23.9284C184.307 24.1665 184.07 24.4045 183.832 24.6426C183.595 24.8807 183.239 25.1188 182.764 25.3569C182.527 25.595 182.29 25.8331 182.052 26.0711C181.815 26.3092 181.578 26.5474 181.34 26.7854C181.103 27.0235 180.866 27.2616 180.628 27.4997C180.154 27.9759 179.679 28.5711 179.204 29.2854L178.848 29.6425C178.611 29.6425 178.492 29.7615 178.492 29.9996C178.255 30.2377 178.136 30.3568 178.136 30.3568C177.899 30.5949 177.78 30.8329 177.78 31.071C177.306 31.5472 176.831 32.0234 176.357 32.4995C176.357 32.7376 176.238 32.8567 176 32.8567ZM179.56 13.5715C179.798 13.5715 180.035 13.6906 180.272 13.9287C180.272 13.9287 180.272 14.0477 180.272 14.2858C180.51 14.5239 180.747 14.6429 180.984 14.6429C180.984 14.881 180.984 15.0001 180.984 15.0001C181.222 15.2382 181.459 15.4762 181.696 15.7143C181.696 15.7143 181.815 15.7143 182.052 15.7143C182.29 15.9524 182.408 16.1905 182.408 16.4286C182.646 16.4286 182.764 16.4286 182.764 16.4286C183.002 16.6667 183.239 16.9047 183.476 17.1428C183.476 17.1428 183.595 17.2619 183.832 17.5C184.07 17.5 184.307 17.6191 184.544 17.8571C184.544 17.8571 184.663 17.8571 184.9 17.8571C184.9 18.0952 185.019 18.3333 185.256 18.5714C185.494 18.5714 185.612 18.5714 185.612 18.5714C185.85 18.8095 186.087 18.9285 186.324 18.9285C186.562 19.1666 186.68 19.2856 186.68 19.2856C186.918 19.5237 187.155 19.6428 187.392 19.6428C187.63 19.6428 187.867 19.7618 188.104 19.9999H188.46C188.46 19.9999 188.46 20.119 188.46 20.3571C188.46 20.3571 188.46 20.4761 188.46 20.7142H188.104C187.867 20.7142 187.748 20.8332 187.748 21.0713C187.274 21.0713 187.036 21.1904 187.036 21.4285C186.799 21.4285 186.562 21.4285 186.324 21.4285C186.087 21.6666 185.968 21.7856 185.968 21.7856L185.612 22.1427C185.375 22.3808 185.138 22.4998 184.9 22.4998L184.544 22.857C184.307 22.857 184.07 22.976 183.832 23.2141C183.595 23.4522 183.358 23.6903 183.12 23.9284C182.646 24.1665 182.29 24.5236 182.052 24.9998C181.815 25.2379 181.578 25.476 181.34 25.714C181.578 25.476 181.934 25.2379 182.408 24.9998C182.646 24.7617 182.883 24.5236 183.12 24.2855C183.358 24.0474 183.714 23.8093 184.188 23.5712C184.426 23.3331 184.663 23.0951 184.9 22.857C185.138 22.6189 185.375 22.4998 185.612 22.4998C185.85 22.2617 185.968 22.1427 185.968 22.1427C186.206 21.9046 186.443 21.7856 186.68 21.7856C186.918 21.7856 187.036 21.6666 187.036 21.4285C187.274 21.4285 187.511 21.3094 187.748 21.0713C187.986 21.0713 188.104 21.0713 188.104 21.0713C188.342 20.8332 188.579 20.7142 188.816 20.7142C189.054 20.4761 189.172 20.3571 189.172 20.3571C189.41 20.3571 189.528 20.3571 189.528 20.3571C189.528 20.3571 189.41 20.238 189.172 19.9999C189.172 19.9999 189.054 19.9999 188.816 19.9999C188.579 19.7618 188.342 19.6428 188.104 19.6428C188.104 19.6428 187.986 19.5237 187.748 19.2856C187.511 19.2856 187.274 19.1666 187.036 18.9285C187.036 18.9285 186.918 18.9285 186.68 18.9285C186.443 18.6904 186.206 18.5714 185.968 18.5714C185.968 18.3333 185.85 18.2142 185.612 18.2142C185.375 18.2142 185.138 18.0952 184.9 17.8571C184.9 17.8571 184.782 17.7381 184.544 17.5C184.307 17.5 184.07 17.3809 183.832 17.1428C183.832 17.1428 183.714 17.0238 183.476 16.7857C183.476 16.7857 183.358 16.6667 183.12 16.4286C182.883 16.4286 182.764 16.3096 182.764 16.0715C182.527 16.0715 182.29 15.9524 182.052 15.7143C182.052 15.7143 181.934 15.5953 181.696 15.3572C181.696 15.3572 181.578 15.2382 181.34 15.0001C181.103 14.762 180.984 14.6429 180.984 14.6429C180.747 14.4048 180.51 14.2858 180.272 14.2858L179.56 13.5715Z" fill="#3BE174"/>
<path d="M162.119 19.9983C162.594 19.7602 163.068 19.5221 163.543 19.284C163.78 19.284 164.136 19.165 164.611 18.9269C164.848 18.6888 165.204 18.4507 165.679 18.2126C165.916 17.9745 166.272 17.7364 166.747 17.4984C166.984 17.2603 167.222 17.0222 167.459 16.7841C167.934 16.7841 168.29 16.665 168.527 16.4269C168.764 16.1889 169.002 15.8317 169.239 15.3555C169.714 15.1175 170.07 14.8794 170.307 14.6413C170.544 14.4032 170.782 14.1651 171.019 13.927L171.731 13.2128C171.968 12.9747 172.206 12.7366 172.443 12.4985L173.155 11.4271L173.867 10.7129L174.579 9.99855L175.291 8.9272L174.935 9.99855L174.579 10.7129L173.867 11.7842C173.63 12.0223 173.392 12.2604 173.155 12.4985C172.918 12.9747 172.68 13.3318 172.443 13.5699C172.206 13.808 171.968 14.0461 171.731 14.2842C171.494 14.5223 171.256 14.8794 171.019 15.3555C170.782 15.5936 170.544 15.8318 170.307 16.0698C170.07 16.3079 169.714 16.546 169.239 16.7841C169.002 17.0222 168.764 17.2603 168.527 17.4984C168.052 17.7364 167.696 17.9745 167.459 18.2126C166.984 18.4507 166.628 18.6888 166.391 18.9269C165.916 19.165 165.56 19.4031 165.323 19.6412C164.848 19.8793 164.492 19.9983 164.255 19.9983C164.018 20.2364 163.899 20.3554 163.899 20.3554C163.899 20.3554 164.018 20.3554 164.255 20.3554C164.492 20.5935 164.848 20.8316 165.323 21.0697C165.56 21.3078 165.916 21.5458 166.391 21.7839C166.628 22.022 166.984 22.2601 167.459 22.4982C167.696 22.7363 167.934 22.9744 168.171 23.2125C168.646 23.4506 169.002 23.6887 169.239 23.9267C169.476 24.1648 169.714 24.4029 169.951 24.641C170.426 24.8791 170.782 25.1172 171.019 25.3553C171.256 25.5933 171.494 25.9505 171.731 26.4267C171.968 26.6648 172.206 26.9028 172.443 27.1409C172.68 27.379 172.918 27.6171 173.155 27.8552C173.392 28.3313 173.511 28.6885 173.511 28.9266C173.748 29.1647 173.986 29.4027 174.223 29.6408C174.46 30.117 174.698 30.4742 174.935 30.7122C174.935 30.9503 175.054 31.1884 175.291 31.4265L175.647 32.4979C175.41 32.0217 175.054 31.4265 174.579 30.7122C174.342 30.4742 174.104 30.2361 173.867 29.998C173.63 29.7599 173.392 29.4028 173.155 28.9266C172.68 28.4504 172.206 27.9742 171.731 27.4981C171.494 27.26 171.256 27.0219 171.019 26.7838C170.782 26.5457 170.426 26.3076 169.951 26.0695C169.714 25.5933 169.476 25.2362 169.239 24.9982C169.002 24.7601 168.764 24.5219 168.527 24.2838C168.052 24.0458 167.696 23.8077 167.459 23.5696C167.222 23.3315 166.866 23.0934 166.391 22.8553C166.154 22.8553 165.916 22.7363 165.679 22.4982C165.204 22.2601 164.848 22.022 164.611 21.7839C164.136 21.5458 163.78 21.3078 163.543 21.0697C163.068 21.0697 162.594 20.9506 162.119 20.7125C161.763 20.3554 162.119 19.9983 162.119 19.9983Z" fill="#3BE174"/>
<path fill-rule="evenodd" clip-rule="evenodd" d="M175.646 32.8567C175.646 32.8567 175.527 32.7376 175.29 32.4995C175.053 32.0234 174.697 31.5472 174.222 31.071C173.985 30.8329 173.866 30.5949 173.866 30.3568C173.629 30.3568 173.51 30.2377 173.51 29.9996C173.273 29.7615 173.154 29.6425 173.154 29.6425L172.798 29.2854C172.323 28.5711 171.849 27.9759 171.374 27.4997C171.137 27.2616 170.899 27.0235 170.662 26.7854C170.425 26.5474 170.069 26.3092 169.594 26.0711C169.357 25.8331 169.119 25.595 168.882 25.3569C168.645 25.1188 168.407 24.8807 168.17 24.6426C167.933 24.4045 167.577 24.1665 167.102 23.9284C166.865 23.6903 166.627 23.4522 166.39 23.2141H166.034C166.034 22.976 165.915 22.857 165.678 22.857C165.441 22.857 165.322 22.7379 165.322 22.4998C165.085 22.4998 164.847 22.3808 164.61 22.1427C164.373 22.1427 164.254 22.1427 164.254 22.1427C164.017 21.9046 163.779 21.7856 163.542 21.7856C163.305 21.5475 163.186 21.4285 163.186 21.4285C162.949 21.4285 162.712 21.3094 162.474 21.0713C162.237 21.0713 162.118 21.0713 162.118 21.0713C161.881 20.8332 161.762 20.7142 161.762 20.7142C161.525 20.4761 161.406 20.238 161.406 19.9999C161.644 19.9999 161.881 19.8809 162.118 19.6428C162.118 19.6428 162.237 19.5237 162.474 19.2856C162.712 19.2856 162.949 19.2856 163.186 19.2856C163.186 19.0476 163.305 18.9285 163.542 18.9285C163.779 18.9285 164.017 18.8095 164.254 18.5714C164.254 18.5714 164.373 18.5714 164.61 18.5714C164.847 18.3333 165.085 18.0952 165.322 17.8571C165.322 17.8571 165.441 17.8571 165.678 17.8571C165.915 17.6191 166.153 17.5 166.39 17.5C166.39 17.2619 166.509 17.1428 166.746 17.1428C166.983 16.9047 167.102 16.7857 167.102 16.7857C167.339 16.7857 167.458 16.6667 167.458 16.4286C167.695 16.4286 167.933 16.3096 168.17 16.0715C168.17 16.0715 168.289 15.9524 168.526 15.7143C168.763 15.7143 168.882 15.5953 168.882 15.3572C169.119 15.3572 169.238 15.2382 169.238 15.0001C169.475 15.0001 169.713 14.881 169.95 14.6429C169.95 14.4048 170.069 14.2858 170.306 14.2858C170.306 14.0477 170.425 13.9287 170.662 13.9287L171.374 13.2144C171.611 12.9763 171.73 12.8573 171.73 12.8573C171.967 12.6192 172.086 12.3811 172.086 12.143L172.798 11.4287L173.51 10.7145L174.222 9.64308L174.934 8.92883L175.29 7.85742C175.527 7.85742 175.765 7.85742 176.002 7.85742C176.239 7.85742 176.358 7.97643 176.358 8.21452L175.646 9.28593L175.29 10.0002L174.934 11.0716L174.222 11.7858C173.985 12.0239 173.866 12.2621 173.866 12.5002L173.51 12.8573C173.51 13.0953 173.391 13.2144 173.154 13.2144C173.154 13.4525 173.035 13.5715 172.798 13.5715C172.798 13.8096 172.679 14.0477 172.442 14.2858C172.442 14.2858 172.323 14.4048 172.086 14.6429C172.086 14.6429 171.967 14.762 171.73 15.0001C171.493 15.2382 171.374 15.3572 171.374 15.3572C171.137 15.5953 171.018 15.8334 171.018 16.0715C170.781 16.0715 170.662 16.0715 170.662 16.0715C170.425 16.3096 170.187 16.5476 169.95 16.7857C169.95 16.7857 169.831 16.7857 169.594 16.7857C169.357 17.0238 169.119 17.2619 168.882 17.5C168.882 17.5 168.882 17.6191 168.882 17.8571C168.645 17.8571 168.407 17.9762 168.17 18.2142C167.933 18.2142 167.814 18.3333 167.814 18.5714C167.577 18.5714 167.339 18.6904 167.102 18.9285C166.865 18.9285 166.746 19.0476 166.746 19.2856C166.509 19.2856 166.271 19.4047 166.034 19.6428C165.797 19.6428 165.678 19.6428 165.678 19.6428C165.441 19.8809 165.085 20.119 164.61 20.3571C164.847 20.5951 165.203 20.7142 165.678 20.7142C165.678 20.9522 165.797 21.0713 166.034 21.0713C166.271 21.3094 166.509 21.4285 166.746 21.4285V21.7856C166.983 21.7856 167.339 21.9046 167.814 22.1427C168.051 22.3808 168.289 22.6189 168.526 22.857C169.001 23.0951 169.357 23.3331 169.594 23.5712C169.831 23.8093 170.069 24.1665 170.306 24.6426C170.781 24.8807 171.137 25.1188 171.374 25.3569C171.611 25.595 171.849 25.8331 172.086 26.0711C172.323 26.3092 172.561 26.6664 172.798 27.1425C173.035 27.3806 173.273 27.6187 173.51 27.8568V28.214C173.747 28.452 173.985 28.6901 174.222 28.9282C174.459 29.1663 174.578 29.4044 174.578 29.6425C174.815 29.6425 174.934 29.7615 174.934 29.9996C174.934 30.2377 175.053 30.4758 175.29 30.7139C175.527 30.952 175.646 31.19 175.646 31.4281L176.358 32.4995C176.358 32.4995 176.239 32.6186 176.002 32.8567C176.002 32.8567 175.883 32.8567 175.646 32.8567ZM172.086 13.5715L171.374 14.2858C171.137 14.2858 171.018 14.4048 171.018 14.6429C170.781 14.881 170.662 15.0001 170.662 15.0001C170.425 15.2382 170.187 15.3572 169.95 15.3572C169.95 15.5953 169.831 15.7143 169.594 15.7143C169.594 15.9524 169.475 16.0715 169.238 16.0715C169.001 16.3096 168.882 16.4286 168.882 16.4286C168.645 16.6667 168.407 16.7857 168.17 16.7857C168.17 17.0238 168.051 17.1428 167.814 17.1428C167.577 17.3809 167.339 17.5 167.102 17.5C167.102 17.7381 166.983 17.8571 166.746 17.8571C166.509 18.0952 166.271 18.2142 166.034 18.2142C166.034 18.2142 165.915 18.3333 165.678 18.5714C165.678 18.5714 165.559 18.6904 165.322 18.9285C165.085 18.9285 164.847 18.9285 164.61 18.9285C164.373 19.1666 164.136 19.2856 163.898 19.2856C163.898 19.5237 163.779 19.6428 163.542 19.6428C163.305 19.6428 163.068 19.7618 162.83 19.9999C162.83 19.9999 162.712 19.9999 162.474 19.9999C162.474 20.238 162.474 20.3571 162.474 20.3571C162.712 20.3571 162.83 20.4761 162.83 20.7142C163.068 20.7142 163.305 20.8332 163.542 21.0713C163.779 21.0713 163.898 21.0713 163.898 21.0713C164.136 21.3094 164.373 21.4285 164.61 21.4285C164.847 21.6666 164.966 21.7856 164.966 21.7856C165.203 21.7856 165.441 21.9046 165.678 22.1427C165.915 22.1427 166.034 22.2617 166.034 22.4998C166.271 22.4998 166.509 22.6189 166.746 22.857C167.221 23.0951 167.577 23.3331 167.814 23.5712C168.051 23.8093 168.289 24.0474 168.526 24.2855C169.001 24.5236 169.357 24.7617 169.594 24.9998C169.831 25.2379 170.069 25.476 170.306 25.714C170.781 25.9521 171.137 26.1902 171.374 26.4283C171.137 26.1902 170.899 25.9521 170.662 25.714C170.425 25.476 170.069 25.2379 169.594 24.9998C169.357 24.5236 169.119 24.1665 168.882 23.9284C168.645 23.6903 168.407 23.4522 168.17 23.2141C167.695 22.976 167.339 22.857 167.102 22.857V22.4998C166.865 22.4998 166.627 22.3808 166.39 22.1427L166.034 21.7856C165.797 21.7856 165.559 21.6666 165.322 21.4285C165.322 21.4285 165.203 21.4285 164.966 21.4285C164.729 21.1904 164.492 21.0713 164.254 21.0713C164.017 20.8332 163.898 20.7142 163.898 20.7142C163.898 20.7142 163.779 20.7142 163.542 20.7142C163.305 20.4761 163.186 20.3571 163.186 20.3571C163.186 20.119 163.305 19.9999 163.542 19.9999C163.779 19.9999 163.898 19.9999 163.898 19.9999C163.898 19.7618 164.017 19.6428 164.254 19.6428C164.492 19.6428 164.729 19.5237 164.966 19.2856C165.203 19.2856 165.322 19.1666 165.322 18.9285C165.559 18.9285 165.797 18.8095 166.034 18.5714C166.271 18.5714 166.39 18.5714 166.39 18.5714C166.627 18.3333 166.865 18.0952 167.102 17.8571C167.102 17.8571 167.221 17.8571 167.458 17.8571C167.695 17.6191 167.933 17.5 168.17 17.5C168.17 17.2619 168.289 17.1428 168.526 17.1428C168.763 16.9047 168.882 16.6667 168.882 16.4286C169.119 16.4286 169.238 16.4286 169.238 16.4286C169.475 16.1905 169.713 15.9524 169.95 15.7143C169.95 15.7143 170.069 15.7143 170.306 15.7143C170.306 15.4762 170.425 15.2382 170.662 15.0001C170.662 15.0001 170.781 14.881 171.018 14.6429C171.255 14.6429 171.374 14.5239 171.374 14.2858C171.611 14.0477 171.73 13.9287 171.73 13.9287C171.73 13.6906 171.849 13.5715 172.086 13.5715Z" fill="#3BE174"/>
<path d="M182.063 29.9977C181.826 29.9977 181.707 29.9977 181.707 29.9977C181.707 29.9977 181.707 29.8787 181.707 29.6406C183.843 27.2597 186.216 25.236 188.827 23.5693C188.827 23.5693 188.946 23.5693 189.183 23.5693C186.572 25.474 184.199 27.6168 182.063 29.9977Z" fill="#3BE174"/>
<path d="M162.118 17.8565C161.88 17.8565 161.762 17.8565 161.762 17.8565C164.847 15.9518 167.695 13.5709 170.306 10.7139C170.306 10.7139 170.424 10.7139 170.662 10.7139C168.051 13.5709 165.203 15.9518 162.118 17.8565Z" fill="#3BE174"/>
<path d="M188.816 17.1422C185.968 15.4756 183.476 13.3328 181.34 10.7139C181.577 10.7139 181.696 10.7139 181.696 10.7139C183.832 13.0947 186.324 15.2375 189.172 17.1422C189.172 17.1422 189.053 17.1422 188.816 17.1422Z" fill="#3BE174"/>
<path d="M169.95 30.0001C167.339 27.143 164.61 24.8812 161.762 23.2146C161.762 22.9765 161.762 22.8574 161.762 22.8574C161.999 22.8574 162.118 22.8574 162.118 22.8574C164.966 24.7621 167.695 27.0239 170.306 29.6429C170.306 29.881 170.306 30.0001 170.306 30.0001C170.306 30.0001 170.187 30.0001 169.95 30.0001Z" fill="#3BE174"/>
<path fill-rule="evenodd" clip-rule="evenodd" d="M328.36 21.4276C328.122 21.4276 328.004 21.4276 328.004 21.4276L327.648 21.0704L326.936 20.3562C326.698 20.3562 326.698 20.2371 326.936 19.999L327.648 19.6419L328.004 19.2848C328.004 19.0467 328.122 18.9276 328.36 18.9276L351.143 19.999C351.381 19.999 351.499 20.1181 351.499 20.3562C351.499 20.3562 351.381 20.3562 351.143 20.3562L328.36 21.4276ZM328.004 20.7133L328.36 21.0704L345.803 20.3562L328.36 19.6419L328.004 19.999L327.648 20.3562L328.004 20.7133Z" fill="#3BE174"/>
<path d="M322.667 20.3573C320.887 20.3573 322.311 20.3573 321.955 20.3573C321.717 20.3573 321.599 20.2383 321.599 20.0002C321.599 20.0002 321.599 20.0002 321.243 20.0002H320.887H319.107H315.191H308.071L293.119 19.6431L263.928 19.2859L204.833 18.5717H205.901L201.629 20.3573L201.273 20.0002L204.121 17.1431L204.477 16.786H204.833L263.928 18.2145L293.119 18.9288L308.071 19.2859H315.191H319.107H320.887H321.243H321.599C321.836 19.2859 321.955 19.405 321.955 19.6431C322.192 19.6431 322.311 19.7621 322.311 20.0002C322.548 20.0002 322.667 20.0002 322.667 20.0002C322.667 20.0002 322.667 20.1192 322.667 20.3573C322.311 20.3573 323.379 20.3573 321.955 20.3573H322.667Z" fill="#3BE174"/>
<path d="M321.955 20.3573C323.379 20.3573 322.311 20.3573 322.667 20.3573C322.667 20.5954 322.667 20.7144 322.667 20.7144C322.667 20.7144 322.548 20.8335 322.311 21.0716C322.311 21.0716 322.192 21.0716 321.955 21.0716C321.955 21.3096 321.836 21.4287 321.599 21.4287H321.243H320.887H319.107H315.191L308.071 21.7858H293.119L263.928 22.5001L204.833 23.9286H204.477L204.121 23.5715L201.273 20.7144L201.629 20.3573L205.901 22.5001L204.833 22.143L263.928 21.4287L293.119 21.0716L308.071 20.7144H315.191H319.107H320.887H321.243C321.599 20.7144 321.599 20.7144 321.599 20.7144C321.599 20.7144 321.717 20.5954 321.955 20.3573C322.311 20.3573 320.887 20.3573 322.667 20.3573H321.955Z" fill="#3BE174"/>
<path d="M324.45 22.1412L321.602 20.3556L324.45 18.2128L327.297 20.3556L324.45 22.1412Z" fill="#3BE174"/>
<path fill-rule="evenodd" clip-rule="evenodd" d="M195.576 26.7851L195.22 25.7137C193.559 23.3328 191.66 21.6662 189.524 20.7138L188.812 20.3567L189.524 19.9996C192.016 18.9282 193.796 17.1425 195.22 14.6426L195.576 13.5712L196.288 14.6426C197.356 17.1425 199.492 18.9282 201.628 19.9996L202.696 20.3567L201.628 20.7138C199.492 21.6662 197.712 23.3328 196.288 25.7137L195.576 26.7851ZM190.948 20.3567C192.61 21.3091 194.152 22.7376 195.576 24.6423C196.763 22.7376 198.306 21.3091 200.204 20.3567C198.424 19.2853 196.644 17.8568 195.576 16.0711C194.508 17.8568 192.728 19.2853 190.948 20.3567Z" fill="#3BE174"/>
<path fill-rule="evenodd" clip-rule="evenodd" d="M23.9954 21.4276C23.9954 21.4276 23.8768 21.4276 23.6395 21.4276L0.85596 20.3562C0.618631 20.3562 0.5 20.3562 0.5 20.3562C0.5 20.1181 0.618631 19.999 0.85596 19.999L23.6395 18.9276C23.8768 18.9276 23.9954 19.0467 23.9954 19.2848L24.3515 19.6419L25.0634 19.999C25.3008 20.2371 25.3008 20.3562 25.0634 20.3562L24.3515 21.0704L23.9954 21.4276ZM6.19584 20.3562L23.6395 21.0704L23.9954 20.7133L24.3515 20.3562L23.9954 19.999L23.6395 19.6419L6.19584 20.3562Z" fill="#3BE174"/>
<path d="M30.4117 20.3573C28.6318 20.3573 29.6997 20.3573 29.3438 20.3573C29.3438 20.1192 29.3438 20.0002 29.3438 20.0002C29.3438 20.0002 29.4624 20.0002 29.6998 20.0002C29.6998 19.7621 29.8184 19.6431 30.0557 19.6431C30.2931 19.405 30.4117 19.2859 30.4117 19.2859C30.4117 19.2859 30.5304 19.2859 30.7678 19.2859H31.1237H32.9037H36.8196H43.9394L58.8911 18.9288L88.0824 18.2145L147.177 16.786H147.889V17.1431L151.093 20.0002L150.381 20.3573L146.109 18.5717H147.177L88.4385 19.2859L58.8911 19.6431L43.9394 20.0002H36.8196H32.9037H31.1237H30.7678C30.4118 20.0002 30.4117 20.0002 30.4117 20.0002C30.4117 20.2383 30.4117 20.3573 30.4117 20.3573C30.0557 20.3573 31.1237 20.3573 29.3438 20.3573H30.4117Z" fill="#3BE174"/>
<path d="M29.3438 20.3573C31.1237 20.3573 30.0557 20.3573 30.4117 20.3573C30.4117 20.5954 30.4117 20.7144 30.4117 20.7144C30.4117 20.7144 30.4118 20.7144 30.7678 20.7144H31.1237H32.9037H36.8196H43.9394L58.8911 21.0716L88.4385 21.4287L147.177 22.143L146.109 22.5001L150.381 20.3573L151.093 20.7144L147.889 23.5715V23.9286H147.177L88.0824 22.5001L58.8911 21.7858H43.9394L36.8196 21.4287H32.9037H31.1237H30.7678C30.5304 21.4287 30.4117 21.4287 30.4117 21.4287C30.4117 21.4287 30.2931 21.3096 30.0557 21.0716C29.8184 21.0716 29.6998 21.0716 29.6998 21.0716C29.4624 20.8335 29.3438 20.7144 29.3438 20.7144C29.3438 20.7144 29.3438 20.5954 29.3438 20.3573C29.6997 20.3573 28.6318 20.3573 30.4117 20.3573H29.3438Z" fill="#3BE174"/>
<path d="M27.5505 22.1412L30.3985 20.3556L27.5505 18.2128L25.0586 20.3556L27.5505 22.1412Z" fill="#3BE174"/>
<path fill-rule="evenodd" clip-rule="evenodd" d="M156.428 26.7851L155.716 25.7137C154.292 23.3328 152.513 21.6662 150.377 20.7138L149.309 20.3567L150.377 19.9996C152.513 18.9282 154.648 17.1425 155.716 14.6426L156.428 13.5712L157.14 14.6426C158.208 17.1425 160.344 18.9282 162.48 19.9996L163.548 20.3567L162.48 20.7138C160.344 21.6662 158.564 23.3328 157.14 25.7137L156.428 26.7851ZM151.801 20.3567C153.462 21.3091 155.004 22.7376 156.428 24.6423C157.615 22.7376 159.158 21.3091 161.056 20.3567C158.92 19.2853 157.496 17.8568 156.428 16.0711C155.004 17.8568 153.581 19.2853 151.801 20.3567Z" fill="#3BE174"/>
<path fill-rule="evenodd" clip-rule="evenodd" d="M176.003 8.57115L175.291 7.49975C174.579 6.30931 173.63 5.35694 172.443 4.64268L171.375 4.28558L172.443 3.92842C173.511 3.57129 174.935 2.49988 175.291 1.07135L176.003 0L176.715 1.07135C177.427 2.49988 178.495 3.57129 179.563 3.92842L180.631 4.28558L179.563 4.64268C178.376 5.35694 177.427 6.30931 176.715 7.49975L176.003 8.57115ZM173.511 4.64268C174.46 5.11885 175.291 5.71407 176.003 6.42834C176.478 5.71407 177.19 5.11885 178.139 4.64268C177.19 3.92841 176.478 3.21418 176.003 2.49992C175.291 3.21418 174.46 3.92841 173.511 4.64268Z" fill="#3BE174"/>
<path fill-rule="evenodd" clip-rule="evenodd" d="M176.003 39.9996L175.291 38.9282C174.579 37.4997 173.63 36.5473 172.443 36.0711L171.375 35.714L172.443 35.3569C173.511 34.6426 174.935 33.5712 175.291 32.4998L176.003 31.0713L176.715 32.4998C177.427 33.5712 178.495 34.6426 179.563 35.3569L180.631 35.714L179.563 36.0711C178.376 36.5473 177.427 37.4997 176.715 38.9282L176.003 39.9996ZM173.511 35.714C174.46 36.1902 175.291 36.9044 176.003 37.8568C176.478 36.9044 177.19 36.1902 178.139 35.714C177.19 35.2378 176.478 34.5236 176.003 33.5712C175.291 34.5236 174.46 35.2378 173.511 35.714Z" fill="#3BE174"/>
<path d="M176.005 26.072C174.106 23.6912 172.089 21.7865 169.953 20.358C172.089 18.9294 174.106 17.1438 176.005 15.001C177.904 17.1438 180.04 18.9294 182.413 20.358C180.04 21.7865 177.904 23.6912 176.005 26.072Z" fill="#3BE174"/>
</svg>
